<svg xmlns="http://www.w3.org/2000/svg" xmlns:xlink="http://www.w3.org/1999/xlink" width="500" zoomAndPan="magnify" viewBox="0 0 375 374.999991" height="500" preserveAspectRatio="xMidYMid meet" version="1.0"><path fill="#326ce5" d="M 219.207031 211.445312 C 218.746094 211.355469 218.285156 211.320312 217.816406 211.339844 C 217 211.382812 216.226562 211.585938 215.496094 211.945312 C 215.148438 212.113281 214.820312 212.3125 214.507812 212.542969 C 214.199219 212.773438 213.914062 213.03125 213.652344 213.320312 C 213.390625 213.605469 213.160156 213.914062 212.957031 214.242188 C 212.757812 214.574219 212.585938 214.917969 212.453125 215.28125 C 212.316406 215.644531 212.21875 216.015625 212.152344 216.398438 C 212.089844 216.78125 212.0625 217.164062 212.070312 217.550781 C 212.078125 217.9375 212.125 218.320312 212.207031 218.699219 C 212.289062 219.074219 212.410156 219.441406 212.5625 219.796875 L 212.519531 219.859375 L 226.402344 253.398438 C 229.699219 251.292969 232.800781 248.933594 235.707031 246.3125 C 238.613281 243.695312 241.285156 240.855469 243.722656 237.796875 C 246.160156 234.734375 248.328125 231.496094 250.226562 228.074219 C 252.125 224.65625 253.730469 221.105469 255.042969 217.417969 L 219.269531 211.371094 Z M 163.542969 216.199219 C 163.394531 215.539062 163.140625 214.921875 162.78125 214.34375 C 162.421875 213.769531 161.980469 213.269531 161.453125 212.839844 C 160.925781 212.414062 160.347656 212.085938 159.707031 211.851562 C 159.070312 211.621094 158.414062 211.5 157.734375 211.488281 C 157.335938 211.484375 156.9375 211.519531 156.542969 211.59375 L 156.484375 211.523438 L 121.019531 217.542969 C 122.339844 221.199219 123.953125 224.722656 125.855469 228.117188 C 127.753906 231.507812 129.917969 234.722656 132.347656 237.761719 C 134.773438 240.800781 137.433594 243.621094 140.324219 246.222656 C 143.214844 248.824219 146.296875 251.171875 149.570312 253.265625 L 163.316406 220.058594 L 163.207031 219.929688 C 163.726562 218.722656 163.839844 217.480469 163.542969 216.199219 Z M 193.246094 229.222656 C 192.984375 228.742188 192.667969 228.300781 192.289062 227.90625 C 191.910156 227.507812 191.484375 227.171875 191.015625 226.890625 C 190.546875 226.609375 190.046875 226.394531 189.519531 226.25 C 188.988281 226.105469 188.453125 226.03125 187.902344 226.03125 C 187.355469 226.03125 186.816406 226.105469 186.289062 226.253906 C 185.761719 226.398438 185.265625 226.613281 184.792969 226.898438 C 184.324219 227.179688 183.902344 227.519531 183.523438 227.914062 C 183.144531 228.3125 182.828125 228.753906 182.570312 229.238281 L 182.542969 229.238281 L 165.101562 260.773438 C 171.34375 262.898438 177.761719 264.128906 184.347656 264.46875 C 190.933594 264.808594 197.441406 264.238281 203.871094 262.765625 C 206.253906 262.222656 208.582031 261.570312 210.855469 260.8125 L 193.375 229.222656 Z M 248.453125 155.96875 L 221.621094 179.984375 L 221.636719 180.0625 C 221.222656 180.421875 220.867188 180.832031 220.5625 181.289062 C 220.261719 181.746094 220.027344 182.234375 219.859375 182.753906 C 219.691406 183.273438 219.59375 183.808594 219.566406 184.355469 C 219.542969 184.902344 219.59375 185.441406 219.714844 185.976562 C 219.835938 186.511719 220.027344 187.019531 220.285156 187.5 C 220.546875 187.984375 220.863281 188.421875 221.242188 188.816406 C 221.621094 189.210938 222.046875 189.550781 222.515625 189.832031 C 222.984375 190.113281 223.484375 190.328125 224.011719 190.472656 L 224.042969 190.617188 L 258.800781 200.628906 C 259.171875 196.75 259.230469 192.867188 258.972656 188.980469 C 258.71875 185.09375 258.148438 181.25 257.269531 177.457031 C 256.390625 173.660156 255.210938 169.960938 253.730469 166.355469 C 252.253906 162.753906 250.492188 159.292969 248.453125 155.972656 Z M 198.601562 158.660156 C 198.628906 159.207031 198.726562 159.742188 198.894531 160.261719 C 199.066406 160.78125 199.300781 161.269531 199.601562 161.726562 C 199.90625 162.183594 200.261719 162.589844 200.675781 162.953125 C 201.085938 163.3125 201.539062 163.609375 202.035156 163.847656 C 202.527344 164.082031 203.042969 164.25 203.582031 164.347656 C 204.121094 164.445312 204.664062 164.46875 205.207031 164.417969 C 205.753906 164.371094 206.28125 164.25 206.796875 164.054688 C 207.308594 163.863281 207.785156 163.605469 208.226562 163.285156 L 208.332031 163.328125 L 237.695312 142.511719 C 234.917969 139.792969 231.941406 137.316406 228.761719 135.082031 C 225.582031 132.851562 222.242188 130.890625 218.742188 129.203125 C 215.242188 127.519531 211.628906 126.125 207.902344 125.027344 C 204.175781 123.933594 200.386719 123.144531 196.53125 122.667969 L 198.570312 158.648438 Z M 167.507812 163.414062 C 167.953125 163.738281 168.429688 163.996094 168.941406 164.1875 C 169.457031 164.378906 169.984375 164.5 170.53125 164.546875 C 171.074219 164.597656 171.617188 164.574219 172.15625 164.476562 C 172.695312 164.375 173.210938 164.207031 173.703125 163.96875 C 174.195312 163.734375 174.648438 163.433594 175.058594 163.074219 C 175.472656 162.710938 175.828125 162.300781 176.128906 161.84375 C 176.429688 161.386719 176.664062 160.898438 176.832031 160.378906 C 177 159.855469 177.097656 159.324219 177.121094 158.777344 L 177.269531 158.707031 L 179.308594 122.664062 C 176.847656 122.960938 174.402344 123.382812 171.984375 123.925781 C 165.546875 125.375 159.433594 127.675781 153.644531 130.832031 C 147.851562 133.988281 142.605469 137.875 137.898438 142.5 L 167.453125 163.449219 Z M 151.753906 190.648438 C 152.285156 190.503906 152.785156 190.292969 153.253906 190.011719 C 153.726562 189.730469 154.152344 189.394531 154.53125 188.996094 C 154.910156 188.601562 155.230469 188.164062 155.492188 187.679688 C 155.75 187.199219 155.941406 186.6875 156.066406 186.15625 C 156.1875 185.621094 156.234375 185.078125 156.210938 184.53125 C 156.1875 183.984375 156.089844 183.449219 155.917969 182.929688 C 155.75 182.40625 155.511719 181.917969 155.210938 181.460938 C 154.90625 181.003906 154.546875 180.59375 154.136719 180.234375 L 154.164062 180.09375 L 127.183594 155.960938 C 125.140625 159.289062 123.382812 162.757812 121.914062 166.375 C 120.445312 169.992188 119.285156 173.707031 118.429688 177.515625 C 117.578125 181.324219 117.042969 185.179688 116.824219 189.078125 C 116.609375 192.972656 116.714844 196.863281 117.144531 200.742188 L 151.726562 190.765625 Z M 177.960938 201.25 L 187.914062 206.035156 L 197.835938 201.257812 L 200.300781 190.546875 L 193.433594 181.957031 L 182.378906 181.957031 L 175.492188 190.53125 Z M 177.960938 201.25 " fill-opacity="1" fill-rule="nonzero"/><path fill="#326ce5" d="M 352.449219 222.355469 L 324.089844 99.167969 C 323.707031 97.574219 323.15625 96.039062 322.433594 94.570312 C 321.710938 93.097656 320.839844 91.722656 319.8125 90.445312 C 318.785156 89.171875 317.632812 88.019531 316.351562 87 C 315.070312 85.980469 313.691406 85.113281 312.214844 84.394531 L 197.417969 29.585938 C 195.929688 28.875 194.382812 28.339844 192.773438 27.976562 C 191.167969 27.609375 189.539062 27.429688 187.890625 27.429688 C 186.242188 27.429688 184.613281 27.609375 183.003906 27.976562 C 181.398438 28.339844 179.851562 28.875 178.363281 29.585938 L 63.585938 84.425781 C 62.113281 85.140625 60.734375 86.007812 59.453125 87.027344 C 58.167969 88.050781 57.015625 89.199219 55.988281 90.476562 C 54.960938 91.75 54.085938 93.125 53.367188 94.597656 C 52.644531 96.066406 52.09375 97.601562 51.710938 99.195312 L 23.394531 222.378906 C 22.6875 225.53125 22.6875 228.683594 23.390625 231.839844 C 23.59375 232.789062 23.859375 233.71875 24.1875 234.632812 C 24.746094 236.199219 25.472656 237.679688 26.375 239.070312 C 26.761719 239.667969 27.171875 240.246094 27.621094 240.804688 L 107.066406 339.582031 C 107.414062 340.011719 107.796875 340.402344 108.175781 340.800781 C 109.425781 342.132812 110.824219 343.292969 112.367188 344.273438 C 114.320312 345.503906 116.414062 346.414062 118.644531 347.003906 C 120.472656 347.503906 122.332031 347.761719 124.226562 347.773438 L 125.464844 347.773438 L 251.628906 347.746094 C 252.398438 347.742188 253.164062 347.695312 253.925781 347.609375 C 255.019531 347.484375 256.097656 347.28125 257.164062 346.992188 C 257.925781 346.792969 258.675781 346.554688 259.410156 346.273438 C 259.984375 346.054688 260.558594 345.835938 261.113281 345.570312 C 261.941406 345.171875 262.746094 344.726562 263.519531 344.230469 C 265.53125 342.964844 267.289062 341.410156 268.789062 339.566406 L 271.210938 336.554688 L 348.207031 240.773438 C 349.695312 238.910156 350.839844 236.855469 351.640625 234.609375 C 351.972656 233.691406 352.246094 232.757812 352.453125 231.804688 C 353.160156 228.652344 353.15625 225.496094 352.449219 222.347656 Z M 233.375 270.265625 C 233.699219 271.214844 234.078125 272.140625 234.519531 273.039062 C 234.167969 273.652344 233.945312 274.3125 233.855469 275.015625 C 233.761719 275.714844 233.804688 276.410156 233.988281 277.09375 C 235.660156 280.925781 237.691406 284.5625 240.078125 288 C 241.414062 289.753906 242.640625 291.578125 243.761719 293.476562 C 244.039062 293.988281 244.402344 294.78125 244.664062 295.324219 C 244.910156 295.738281 245.113281 296.171875 245.269531 296.628906 C 245.425781 297.082031 245.53125 297.550781 245.589844 298.027344 C 245.648438 298.507812 245.65625 298.984375 245.617188 299.464844 C 245.574219 299.945312 245.484375 300.414062 245.34375 300.875 C 245.203125 301.335938 245.019531 301.777344 244.785156 302.199219 C 244.554688 302.621094 244.28125 303.015625 243.964844 303.378906 C 243.648438 303.742188 243.300781 304.070312 242.917969 304.363281 C 242.535156 304.65625 242.125 304.902344 241.691406 305.109375 C 241.253906 305.316406 240.800781 305.472656 240.332031 305.585938 C 239.867188 305.695312 239.390625 305.757812 238.910156 305.769531 C 238.425781 305.78125 237.949219 305.742188 237.476562 305.65625 C 237.003906 305.566406 236.542969 305.429688 236.097656 305.246094 C 235.652344 305.0625 235.234375 304.832031 234.835938 304.5625 C 234.4375 304.289062 234.074219 303.976562 233.742188 303.628906 C 233.410156 303.28125 233.117188 302.902344 232.863281 302.492188 C 232.613281 302.082031 232.40625 301.648438 232.242188 301.195312 C 231.980469 300.660156 231.617188 299.941406 231.390625 299.433594 C 230.605469 297.375 229.941406 295.277344 229.398438 293.140625 C 228.203125 289.132812 226.632812 285.28125 224.683594 281.585938 C 224.261719 281.015625 223.746094 280.546875 223.140625 280.179688 C 222.53125 279.808594 221.878906 279.570312 221.175781 279.457031 C 220.957031 279.078125 220.144531 277.585938 219.707031 276.816406 C 214.640625 278.734375 209.441406 280.179688 204.113281 281.148438 C 198.78125 282.113281 193.410156 282.59375 187.992188 282.578125 C 182.574219 282.566406 177.203125 282.058594 171.878906 281.0625 C 166.550781 280.066406 161.363281 278.597656 156.304688 276.652344 L 154.75 279.46875 C 153.613281 279.644531 152.628906 280.128906 151.789062 280.914062 C 149.433594 284.777344 147.660156 288.890625 146.46875 293.257812 C 145.929688 295.394531 145.269531 297.492188 144.488281 299.550781 C 144.265625 300.058594 143.898438 300.765625 143.636719 301.300781 L 143.636719 301.3125 L 143.625 301.328125 C 143.464844 301.78125 143.257812 302.214844 143.003906 302.625 C 142.75 303.035156 142.457031 303.414062 142.125 303.761719 C 141.792969 304.113281 141.429688 304.421875 141.03125 304.695312 C 140.632812 304.96875 140.210938 305.195312 139.765625 305.382812 C 139.320312 305.566406 138.859375 305.703125 138.386719 305.789062 C 137.914062 305.878906 137.433594 305.914062 136.953125 305.902344 C 136.472656 305.890625 135.996094 305.828125 135.527344 305.71875 C 135.058594 305.605469 134.605469 305.445312 134.171875 305.238281 C 133.734375 305.03125 133.324219 304.78125 132.941406 304.492188 C 132.558594 304.199219 132.210938 303.867188 131.894531 303.503906 C 131.582031 303.136719 131.308594 302.742188 131.078125 302.320312 C 130.847656 301.898438 130.660156 301.457031 130.523438 300.996094 C 130.382812 300.53125 130.292969 300.0625 130.253906 299.582031 C 130.214844 299.101562 130.222656 298.621094 130.285156 298.144531 C 130.34375 297.664062 130.453125 297.199219 130.613281 296.742188 C 130.769531 296.289062 130.972656 295.851562 131.222656 295.441406 C 131.480469 294.894531 131.828125 294.105469 132.101562 293.59375 C 133.222656 291.691406 134.449219 289.863281 135.785156 288.101562 C 138.214844 284.574219 140.285156 280.847656 142.003906 276.925781 C 142.1875 275.570312 141.984375 274.273438 141.390625 273.039062 L 142.640625 270.042969 C 137.976562 267.292969 133.601562 264.144531 129.511719 260.597656 C 125.421875 257.050781 121.683594 253.164062 118.300781 248.9375 C 114.917969 244.714844 111.941406 240.21875 109.375 235.453125 C 106.804688 230.6875 104.6875 225.726562 103.019531 220.578125 L 100.027344 221.085938 C 98.84375 220.246094 97.527344 219.78125 96.074219 219.695312 C 91.96875 220.480469 87.976562 221.65625 84.101562 223.21875 C 82.089844 224.125 80.035156 224.910156 77.9375 225.582031 C 77.4375 225.71875 76.722656 225.855469 76.15625 225.976562 C 76.109375 225.992188 76.070312 226.011719 76.027344 226.023438 C 75.992188 226.03125 75.957031 226.03125 75.921875 226.035156 C 75.464844 226.183594 74.996094 226.285156 74.519531 226.339844 C 74.042969 226.390625 73.566406 226.394531 73.089844 226.347656 C 72.609375 226.300781 72.144531 226.203125 71.6875 226.058594 C 71.226562 225.914062 70.789062 225.722656 70.371094 225.488281 C 69.953125 225.25 69.566406 224.972656 69.207031 224.65625 C 68.847656 224.339844 68.523438 223.988281 68.234375 223.601562 C 67.949219 223.21875 67.703125 222.808594 67.503906 222.371094 C 67.304688 221.9375 67.148438 221.484375 67.042969 221.015625 C 66.9375 220.546875 66.878906 220.074219 66.871094 219.59375 C 66.863281 219.113281 66.90625 218.640625 66.996094 218.167969 C 67.089844 217.695312 67.226562 217.238281 67.414062 216.796875 C 67.601562 216.355469 67.832031 215.9375 68.105469 215.542969 C 68.382812 215.148438 68.691406 214.789062 69.042969 214.460938 C 69.390625 214.132812 69.773438 213.84375 70.183594 213.59375 C 70.59375 213.34375 71.023438 213.140625 71.476562 212.980469 C 71.929688 212.820312 72.394531 212.710938 72.871094 212.648438 L 72.96875 212.621094 L 73.03125 212.605469 C 73.605469 212.472656 74.339844 212.28125 74.863281 212.179688 C 77.050781 211.875 79.25 211.699219 81.457031 211.648438 C 85.628906 211.375 89.730469 210.703125 93.769531 209.628906 C 94.980469 208.855469 95.964844 207.863281 96.722656 206.648438 L 99.597656 205.808594 C 98.824219 200.433594 98.546875 195.03125 98.761719 189.605469 C 98.976562 184.179688 99.683594 178.820312 100.882812 173.523438 C 102.082031 168.226562 103.75 163.082031 105.890625 158.09375 C 108.03125 153.101562 110.609375 148.347656 113.621094 143.832031 L 111.417969 141.867188 C 111.335938 140.414062 110.875 139.089844 110.039062 137.902344 C 106.867188 135.175781 103.460938 132.78125 99.820312 130.722656 C 97.855469 129.722656 95.957031 128.613281 94.125 127.390625 C 93.707031 127.082031 93.152344 126.613281 92.699219 126.246094 L 92.597656 126.175781 C 92.210938 125.894531 91.855469 125.582031 91.53125 125.234375 C 91.203125 124.886719 90.914062 124.511719 90.664062 124.105469 C 90.410156 123.703125 90.203125 123.277344 90.035156 122.832031 C 89.867188 122.386719 89.742188 121.929688 89.664062 121.457031 C 89.585938 120.988281 89.554688 120.515625 89.566406 120.039062 C 89.582031 119.5625 89.644531 119.09375 89.75 118.628906 C 89.855469 118.164062 90.007812 117.714844 90.203125 117.28125 C 90.398438 116.84375 90.632812 116.433594 90.910156 116.046875 C 91.574219 115.230469 92.390625 114.605469 93.355469 114.179688 C 94.320312 113.753906 95.328125 113.566406 96.382812 113.625 C 98.175781 113.699219 99.773438 114.300781 101.171875 115.429688 C 101.640625 115.796875 102.277344 116.285156 102.695312 116.644531 C 104.292969 118.15625 105.804688 119.757812 107.21875 121.445312 C 110.035156 124.539062 113.121094 127.328125 116.480469 129.816406 C 117.109375 130.144531 117.777344 130.34375 118.484375 130.414062 C 119.191406 130.480469 119.882812 130.414062 120.5625 130.210938 C 121.382812 130.808594 122.207031 131.394531 123.039062 131.972656 C 126.042969 128.78125 129.261719 125.832031 132.703125 123.121094 C 136.144531 120.40625 139.765625 117.964844 143.570312 115.792969 C 147.371094 113.621094 151.316406 111.738281 155.398438 110.152344 C 159.480469 108.566406 163.660156 107.289062 167.933594 106.324219 C 172.027344 105.398438 176.167969 104.761719 180.355469 104.414062 L 180.515625 101.511719 C 181.605469 100.542969 182.347656 99.359375 182.746094 97.957031 C 182.898438 93.777344 182.640625 89.625 181.980469 85.496094 C 181.542969 83.335938 181.230469 81.160156 181.042969 78.960938 C 181.027344 78.460938 181.054688 77.773438 181.058594 77.203125 C 181.058594 77.136719 181.042969 77.074219 181.042969 77.011719 C 180.996094 76.53125 180.996094 76.050781 181.046875 75.570312 C 181.101562 75.089844 181.203125 74.621094 181.351562 74.164062 C 181.503906 73.703125 181.699219 73.265625 181.941406 72.847656 C 182.183594 72.429688 182.464844 72.042969 182.789062 71.683594 C 183.113281 71.328125 183.46875 71.003906 183.859375 70.722656 C 184.25 70.4375 184.667969 70.199219 185.109375 70.003906 C 185.550781 69.808594 186.007812 69.660156 186.476562 69.558594 C 186.949219 69.457031 187.429688 69.40625 187.910156 69.40625 C 188.394531 69.40625 188.871094 69.457031 189.34375 69.558594 C 189.816406 69.65625 190.273438 69.804688 190.714844 70 C 191.15625 70.195312 191.570312 70.433594 191.960938 70.71875 C 192.351562 71 192.710938 71.320312 193.035156 71.679688 C 193.359375 72.039062 193.640625 72.425781 193.882812 72.84375 C 194.125 73.261719 194.324219 73.699219 194.472656 74.15625 C 194.625 74.613281 194.726562 75.085938 194.777344 75.5625 C 194.832031 76.042969 194.832031 76.523438 194.785156 77.003906 C 194.785156 77.605469 194.820312 78.402344 194.800781 78.957031 C 194.609375 81.152344 194.296875 83.332031 193.855469 85.492188 C 193.191406 89.621094 192.933594 93.773438 193.078125 97.953125 C 193.214844 98.648438 193.476562 99.296875 193.863281 99.890625 C 194.253906 100.484375 194.738281 100.984375 195.324219 101.386719 C 195.347656 101.882812 195.429688 103.542969 195.488281 104.453125 C 200.875 104.945312 206.175781 105.910156 211.386719 107.355469 C 216.597656 108.800781 221.636719 110.699219 226.507812 113.050781 C 231.375 115.40625 235.996094 118.175781 240.367188 121.359375 C 244.734375 124.542969 248.785156 128.09375 252.515625 132.011719 L 255.132812 130.144531 C 256.5625 130.386719 257.953125 130.238281 259.300781 129.691406 C 262.660156 127.199219 265.746094 124.40625 268.5625 121.308594 C 269.980469 119.621094 271.492188 118.019531 273.097656 116.507812 C 273.519531 116.144531 274.15625 115.660156 274.621094 115.292969 C 274.96875 114.953125 275.34375 114.652344 275.75 114.390625 C 276.160156 114.132812 276.589844 113.917969 277.042969 113.746094 C 277.496094 113.574219 277.960938 113.453125 278.441406 113.382812 C 278.917969 113.308594 279.398438 113.289062 279.882812 113.316406 C 280.367188 113.347656 280.839844 113.425781 281.308594 113.554688 C 281.773438 113.683594 282.222656 113.859375 282.652344 114.082031 C 283.082031 114.304688 283.484375 114.570312 283.859375 114.878906 C 284.230469 115.183594 284.570312 115.527344 284.871094 115.90625 C 285.171875 116.285156 285.433594 116.691406 285.648438 117.125 C 285.863281 117.558594 286.035156 118.007812 286.15625 118.476562 C 286.277344 118.945312 286.347656 119.421875 286.371094 119.90625 C 286.390625 120.390625 286.363281 120.871094 286.28125 121.347656 C 286.203125 121.824219 286.074219 122.289062 285.898438 122.738281 C 285.71875 123.1875 285.496094 123.617188 285.230469 124.019531 C 284.964844 124.425781 284.65625 124.796875 284.3125 125.136719 C 283.964844 125.472656 283.589844 125.773438 283.179688 126.035156 C 282.722656 126.40625 282.113281 126.925781 281.667969 127.253906 C 279.832031 128.476562 277.925781 129.585938 275.960938 130.585938 C 272.320312 132.644531 268.914062 135.039062 265.742188 137.765625 C 265.28125 138.304688 264.941406 138.910156 264.714844 139.582031 C 264.492188 140.257812 264.40625 140.949219 264.453125 141.65625 C 264.070312 142.007812 262.726562 143.195312 262.015625 143.839844 C 265.035156 148.34375 267.625 153.082031 269.78125 158.058594 C 271.941406 163.03125 273.628906 168.160156 274.851562 173.441406 C 276.074219 178.726562 276.8125 184.074219 277.058594 189.492188 C 277.308594 194.90625 277.0625 200.300781 276.328125 205.671875 L 279.101562 206.480469 C 279.808594 207.753906 280.796875 208.746094 282.066406 209.460938 C 286.105469 210.535156 290.210938 211.210938 294.382812 211.488281 C 296.589844 211.539062 298.785156 211.714844 300.972656 212.015625 C 301.550781 212.121094 302.382812 212.351562 302.972656 212.488281 C 303.449219 212.550781 303.914062 212.660156 304.367188 212.820312 C 304.820312 212.980469 305.25 213.183594 305.660156 213.433594 C 306.070312 213.683594 306.449219 213.972656 306.800781 214.300781 C 307.148438 214.632812 307.460938 214.992188 307.734375 215.386719 C 308.007812 215.78125 308.238281 216.199219 308.425781 216.640625 C 308.613281 217.082031 308.753906 217.539062 308.84375 218.011719 C 308.933594 218.480469 308.976562 218.957031 308.96875 219.4375 C 308.960938 219.917969 308.902344 220.390625 308.796875 220.859375 C 308.691406 221.328125 308.535156 221.78125 308.335938 222.214844 C 308.132812 222.652344 307.890625 223.0625 307.601562 223.445312 C 307.316406 223.832031 306.992188 224.183594 306.632812 224.5 C 306.273438 224.816406 305.882812 225.09375 305.464844 225.328125 C 305.046875 225.566406 304.609375 225.753906 304.152344 225.898438 C 303.691406 226.042969 303.226562 226.140625 302.746094 226.1875 C 302.269531 226.234375 301.792969 226.230469 301.316406 226.179688 C 300.839844 226.125 300.371094 226.023438 299.917969 225.875 L 299.816406 225.859375 C 299.769531 225.847656 299.730469 225.824219 299.683594 225.8125 C 299.117188 225.6875 298.402344 225.566406 297.90625 225.433594 C 295.808594 224.761719 293.753906 223.96875 291.746094 223.054688 C 287.867188 221.492188 283.871094 220.316406 279.761719 219.53125 C 279.050781 219.507812 278.363281 219.621094 277.699219 219.867188 C 277.03125 220.117188 276.4375 220.480469 275.914062 220.957031 C 274.9375 220.773438 273.960938 220.601562 272.976562 220.445312 C 271.332031 225.625 269.230469 230.617188 266.671875 235.414062 C 264.113281 240.214844 261.144531 244.742188 257.761719 249 C 254.375 253.253906 250.636719 257.171875 246.539062 260.746094 C 242.441406 264.316406 238.050781 267.492188 233.375 270.265625 Z M 233.375 270.265625 " fill-opacity="1" fill-rule="nonzero"/><path fill="#326ce5" d="M 367.425781 225.511719 L 336.484375 91.117188 C 336.066406 89.378906 335.464844 87.707031 334.679688 86.101562 C 333.890625 84.496094 332.9375 82.996094 331.816406 81.601562 C 330.699219 80.207031 329.4375 78.953125 328.039062 77.839844 C 326.640625 76.726562 325.136719 75.78125 323.527344 75 L 198.289062 15.207031 C 196.664062 14.433594 194.976562 13.847656 193.222656 13.449219 C 191.46875 13.054688 189.691406 12.855469 187.894531 12.855469 C 186.09375 12.855469 184.316406 13.054688 182.5625 13.449219 C 180.808594 13.847656 179.121094 14.433594 177.5 15.207031 L 52.269531 75.035156 C 50.660156 75.816406 49.15625 76.761719 47.757812 77.875 C 46.359375 78.988281 45.097656 80.242188 43.980469 81.632812 C 42.859375 83.027344 41.902344 84.523438 41.117188 86.128906 C 40.328125 87.734375 39.726562 89.40625 39.308594 91.144531 L 8.421875 225.550781 C 8.074219 227.097656 7.882812 228.667969 7.847656 230.253906 C 7.8125 231.84375 7.933594 233.417969 8.210938 234.980469 C 8.492188 236.542969 8.921875 238.0625 9.503906 239.542969 C 10.085938 241.019531 10.808594 242.425781 11.671875 243.757812 C 12.09375 244.410156 12.546875 245.039062 13.035156 245.648438 L 99.710938 353.421875 C 100.847656 354.808594 102.121094 356.054688 103.53125 357.160156 C 104.941406 358.265625 106.457031 359.207031 108.074219 359.976562 C 109.691406 360.75 111.375 361.335938 113.121094 361.738281 C 114.867188 362.136719 116.636719 362.34375 118.429688 362.355469 L 257.429688 362.320312 C 259.222656 362.3125 260.992188 362.105469 262.738281 361.707031 C 264.484375 361.304688 266.167969 360.71875 267.785156 359.949219 C 269.402344 359.179688 270.917969 358.242188 272.328125 357.136719 C 273.738281 356.03125 275.015625 354.785156 276.152344 353.402344 L 362.796875 245.617188 C 363.90625 244.21875 364.847656 242.71875 365.621094 241.109375 C 366.398438 239.503906 366.984375 237.832031 367.382812 236.089844 C 367.785156 234.351562 367.988281 232.589844 367.996094 230.808594 C 368 229.023438 367.8125 227.261719 367.425781 225.519531 Z M 352.453125 231.808594 C 352.242188 232.757812 351.972656 233.695312 351.640625 234.613281 C 350.839844 236.855469 349.695312 238.910156 348.207031 240.773438 L 271.210938 336.554688 L 268.792969 339.570312 C 267.289062 341.414062 265.53125 342.96875 263.515625 344.234375 C 262.742188 344.730469 261.945312 345.175781 261.117188 345.574219 C 260.5625 345.828125 259.992188 346.0625 259.417969 346.273438 C 258.679688 346.554688 257.929688 346.796875 257.164062 346.996094 C 256.101562 347.285156 255.023438 347.488281 253.925781 347.613281 C 253.164062 347.699219 252.398438 347.746094 251.632812 347.746094 L 125.464844 347.777344 L 124.226562 347.777344 C 122.332031 347.765625 120.472656 347.507812 118.644531 347.007812 C 116.414062 346.417969 114.324219 345.503906 112.371094 344.273438 C 110.828125 343.292969 109.429688 342.136719 108.175781 340.804688 C 107.796875 340.402344 107.414062 340.011719 107.070312 339.582031 L 27.621094 240.804688 C 27.179688 240.25 26.761719 239.667969 26.375 239.070312 C 25.476562 237.675781 24.746094 236.199219 24.191406 234.632812 C 23.863281 233.71875 23.59375 232.785156 23.390625 231.835938 C 22.6875 228.683594 22.691406 225.53125 23.398438 222.378906 L 51.710938 99.1875 C 52.09375 97.59375 52.644531 96.0625 53.367188 94.59375 C 54.089844 93.121094 54.964844 91.75 55.992188 90.472656 C 57.015625 89.195312 58.171875 88.046875 59.453125 87.027344 C 60.734375 86.003906 62.113281 85.136719 63.585938 84.425781 L 178.367188 29.589844 C 179.855469 28.878906 181.402344 28.34375 183.007812 27.976562 C 184.617188 27.613281 186.246094 27.433594 187.894531 27.433594 C 189.542969 27.433594 191.167969 27.613281 192.777344 27.976562 C 194.386719 28.34375 195.933594 28.878906 197.421875 29.589844 L 312.214844 84.398438 C 313.691406 85.113281 315.070312 85.984375 316.351562 87.003906 C 317.632812 88.023438 318.785156 89.171875 319.8125 90.449219 C 320.839844 91.726562 321.710938 93.101562 322.433594 94.574219 C 323.15625 96.042969 323.707031 97.574219 324.089844 99.167969 L 352.449219 222.355469 C 353.15625 225.507812 353.15625 228.660156 352.453125 231.808594 Z M 352.453125 231.808594 " fill-opacity="1" fill-rule="nonzero"/></svg>